<svg data-v-423bf9ae="" xmlns="http://www.w3.org/2000/svg" viewBox="0 0 100 90" class="iconLeftSlogan"><g data-v-423bf9ae="" id="94bfbd34-8bd6-40db-b832-dae5548bba19" transform="matrix(1.3861936220766675,0,0,1.3861936220766675,-20.166080495448895,-23.772677803750938)" stroke="none" fill="#00A3DD"><path d="M54.747 45.359c2.269 2.269 3.518 5.285 3.518 8.494s-1.25 6.225-3.518 8.494L38.144 78.95c-2.342 2.342-5.418 3.513-8.494 3.513s-6.152-1.171-8.494-3.513l-2.493-2.493a11.932 11.932 0 0 1-3.518-8.494c0-3.209 1.25-6.225 3.518-8.494l16.603-16.603a1.957 1.957 0 0 1 2.767 2.767L21.43 62.236a8.046 8.046 0 0 0-2.372 5.727 8.05 8.05 0 0 0 2.372 5.727l2.493 2.493c3.158 3.158 8.296 3.158 11.454 0L51.979 59.58a8.046 8.046 0 0 0 2.372-5.727 8.05 8.05 0 0 0-2.372-5.727 1.957 1.957 0 1 1 2.768-2.767zm26.591-21.816l-2.493-2.493c-4.684-4.684-12.305-4.684-16.988 0L45.253 37.653c-2.269 2.269-3.518 5.286-3.518 8.494s1.25 6.225 3.518 8.494a1.957 1.957 0 0 0 2.767-2.767 8.044 8.044 0 0 1-2.372-5.727 8.05 8.05 0 0 1 2.372-5.727l16.603-16.603c3.158-3.158 8.296-3.158 11.454 0l2.493 2.493c1.53 1.53 2.372 3.563 2.372 5.727s-.843 4.197-2.372 5.727L61.968 54.367a1.957 1.957 0 1 0 2.768 2.767l16.603-16.603c2.269-2.269 3.518-5.286 3.518-8.494s-1.251-6.225-3.519-8.494z"></path></g></svg>